999
"DXF R12 Output" (www.mydxf.blogspot.com)
 0 
SECTION
 2 
HEADER
 9 
$ACADVER
 1 
AC1009
 9 
$EXTMIN
 10 
 0 
 20 
 0 
 9 
$EXTMAX
 10 
 8.5 
 20 
 11 
 0 
ENDSEC
 0 
SECTION
 2 
ENTITIES
0
LINE
8
Layer 1
10
0.846666
20
317.647000
11
-0.846666
21
315.953000
0
LINE
8
Layer 1
10
0.000000
20
318.211000
11
0.000000
21
315.389000
0
LINE
8
Layer 1
10
2.257780
20
315.671000
11
1.128890
21
314.542110
0
LINE
8
Layer 1
10
1.693330
20
316.236000
11
0.564440
21
315.107110
0
LINE
8
Layer 1
10
1.128890
20
316.800000
11
0.000000
21
315.671110
0
LINE
8
0
10
249.081000
20
90.658300
11
245.329552
21
100.371558
0
LINE
8
0
10
245.329552
20
100.371558
11
241.227272
21
109.873282
0
LINE
8
0
10
241.227272
20
109.873282
11
236.783227
21
119.157123
0
LINE
8
0
10
236.783227
20
119.157123
11
232.006487
21
128.216731
0
LINE
8
0
10
232.006487
20
128.216731
11
226.906119
21
137.045756
0
LINE
8
0
10
226.906119
20
137.045756
11
221.491191
21
145.637849
0
LINE
8
0
10
221.491191
20
145.637849
11
215.770772
21
153.986659
0
LINE
8
0
10
215.770772
20
153.986659
11
209.753929
21
162.085838
0
LINE
8
0
10
209.753929
20
162.085838
11
203.449732
21
169.929036
0
LINE
8
0
10
203.449732
20
169.929036
11
196.867247
21
177.509903
0
LINE
8
0
10
196.867247
20
177.509903
11
190.015544
21
184.822090
0
LINE
8
0
10
190.015544
20
184.822090
11
182.903690
21
191.859246
0
LINE
8
0
10
182.903690
20
191.859246
11
175.540754
21
198.615022
0
LINE
8
0
10
175.540754
20
198.615022
11
167.935804
21
205.083069
0
LINE
8
0
10
167.935804
20
205.083069
11
160.097908
21
211.257037
0
LINE
8
0
10
160.097908
20
211.257037
11
152.036134
21
217.130576
0
LINE
8
0
10
152.036134
20
217.130576
11
143.759550
21
222.697337
0
LINE
8
0
10
143.759550
20
222.697337
11
135.277225
21
227.950970
0
LINE
8
0
10
135.277225
20
227.950970
11
126.598226
21
232.885125
0
LINE
8
0
10
126.598226
20
232.885125
11
117.731623
21
237.493453
0
LINE
8
0
10
117.731623
20
237.493453
11
108.686482
21
241.769603
0
LINE
8
0
10
108.686482
20
241.769603
11
99.471873
21
245.707228
0
LINE
8
0
10
99.471873
20
245.707228
11
90.096863
21
249.299975
0
LINE
8
0
10
90.096863
20
249.299975
11
80.570521
21
252.541498
0
LINE
8
0
10
80.570521
20
252.541498
11
70.901915
21
255.425444
0
LINE
8
0
10
70.901915
20
255.425444
11
61.100112
21
257.945466
0
LINE
8
0
10
61.100112
20
257.945466
11
51.174182
21
260.095212
0
LINE
8
0
10
51.174182
20
260.095212
11
41.133192
21
261.868334
0
LINE
8
0
10
41.133192
20
261.868334
11
30.986211
21
263.258482
0
LINE
8
0
10
30.986211
20
263.258482
11
20.742306
21
264.259307
0
LINE
8
0
10
20.742306
20
264.259307
11
10.410547
21
264.864458
0
LINE
8
0
10
10.410547
20
264.864458
11
-0.000000
21
265.067586
0
LINE
8
0
10
-0.000000
20
265.067586
11
-10.410547
21
264.864458
0
LINE
8
0
10
-10.410547
20
264.864458
11
-20.742306
21
264.259307
0
LINE
8
0
10
-20.742306
20
264.259307
11
-30.986211
21
263.258482
0
LINE
8
0
10
-30.986211
20
263.258482
11
-41.133192
21
261.868334
0
LINE
8
0
10
-41.133192
20
261.868334
11
-51.174182
21
260.095212
0
LINE
8
0
10
-51.174182
20
260.095212
11
-61.100112
21
257.945466
0
LINE
8
0
10
-61.100112
20
257.945466
11
-70.901915
21
255.425444
0
LINE
8
0
10
-70.901915
20
255.425444
11
-80.570521
21
252.541498
0
LINE
8
0
10
-80.570521
20
252.541498
11
-90.096863
21
249.299975
0
LINE
8
0
10
-90.096863
20
249.299975
11
-99.471873
21
245.707228
0
LINE
8
0
10
-99.471873
20
245.707228
11
-108.686482
21
241.769603
0
LINE
8
0
10
-108.686482
20
241.769603
11
-117.731623
21
237.493453
0
LINE
8
0
10
-117.731623
20
237.493453
11
-126.598226
21
232.885125
0
LINE
8
0
10
-126.598226
20
232.885125
11
-135.277225
21
227.950970
0
LINE
8
0
10
-135.277225
20
227.950970
11
-143.759550
21
222.697337
0
LINE
8
0
10
-143.759550
20
222.697337
11
-152.036134
21
217.130576
0
LINE
8
0
10
-152.036134
20
217.130576
11
-160.097908
21
211.257037
0
LINE
8
0
10
-160.097908
20
211.257037
11
-167.935804
21
205.083069
0
LINE
8
0
10
-167.935804
20
205.083069
11
-175.540754
21
198.615022
0
LINE
8
0
10
-175.540754
20
198.615022
11
-182.903690
21
191.859246
0
LINE
8
0
10
-182.903690
20
191.859246
11
-190.015544
21
184.822090
0
LINE
8
0
10
-190.015544
20
184.822090
11
-196.867247
21
177.509903
0
LINE
8
0
10
-196.867247
20
177.509903
11
-203.449732
21
169.929036
0
LINE
8
0
10
-203.449732
20
169.929036
11
-209.753929
21
162.085838
0
LINE
8
0
10
-209.753929
20
162.085838
11
-215.770772
21
153.986659
0
LINE
8
0
10
-215.770772
20
153.986659
11
-221.491191
21
145.637849
0
LINE
8
0
10
-221.491191
20
145.637849
11
-226.906119
21
137.045756
0
LINE
8
0
10
-226.906119
20
137.045756
11
-232.006487
21
128.216731
0
LINE
8
0
10
-232.006487
20
128.216731
11
-236.783227
21
119.157123
0
LINE
8
0
10
-236.783227
20
119.157123
11
-241.227272
21
109.873282
0
LINE
8
0
10
-241.227272
20
109.873282
11
-245.329552
21
100.371558
0
LINE
8
0
10
-245.329552
20
100.371558
11
-249.081000
21
90.658300
0
LINE
8
0
10
308.720000
20
112.365000
11
304.070271
21
124.403909
0
LINE
8
0
10
304.070271
20
124.403909
11
298.985712
21
136.180635
0
LINE
8
0
10
298.985712
20
136.180635
11
293.477562
21
147.687309
0
LINE
8
0
10
293.477562
20
147.687309
11
287.557061
21
158.916060
0
LINE
8
0
10
287.557061
20
158.916060
11
281.235447
21
169.859020
0
LINE
8
0
10
281.235447
20
169.859020
11
274.523961
21
180.508317
0
LINE
8
0
10
274.523961
20
180.508317
11
267.433841
21
190.856082
0
LINE
8
0
10
267.433841
20
190.856082
11
259.976327
21
200.894446
0
LINE
8
0
10
259.976327
20
200.894446
11
252.162658
21
210.615538
0
LINE
8
0
10
252.162658
20
210.615538
11
244.004074
21
220.011488
0
LINE
8
0
10
244.004074
20
220.011488
11
235.511813
21
229.074427
0
LINE
8
0
10
235.511813
20
229.074427
11
226.697116
21
237.796485
0
LINE
8
0
10
226.697116
20
237.796485
11
217.571221
21
246.169791
0
LINE
8
0
10
217.571221
20
246.169791
11
208.145368
21
254.186477
0
LINE
8
0
10
208.145368
20
254.186477
11
198.430796
21
261.838672
0
LINE
8
0
10
198.430796
20
261.838672
11
188.438745
21
269.118507
0
LINE
8
0
10
188.438745
20
269.118507
11
178.180453
21
276.018110
0
LINE
8
0
10
178.180453
20
276.018110
11
167.667160
21
282.529614
0
LINE
8
0
10
167.667160
20
282.529614
11
156.910106
21
288.645147
0
LINE
8
0
10
156.910106
20
288.645147
11
145.920530
21
294.356840
0
LINE
8
0
10
145.920530
20
294.356840
11
134.709671
21
299.656823
0
LINE
8
0
10
134.709671
20
299.656823
11
123.288768
21
304.537226
0
LINE
8
0
10
123.288768
20
304.537226
11
111.669062
21
308.990180
0
LINE
8
0
10
111.669062
20
308.990180
11
99.861790
21
313.007814
0
LINE
8
0
10
99.861790
20
313.007814
11
87.878193
21
316.582258
0
LINE
8
0
10
87.878193
20
316.582258
11
75.729509
21
319.705643
0
LINE
8
0
10
75.729509
20
319.705643
11
63.426979
21
322.370100
0
LINE
8
0
10
63.426979
20
322.370100
11
50.981841
21
324.567757
0
LINE
8
0
10
50.981841
20
324.567757
11
38.405335
21
326.290745
0
LINE
8
0
10
38.405335
20
326.290745
11
25.708699
21
327.531194
0
LINE
8
0
10
25.708699
20
327.531194
11
12.903175
21
328.281235
0
LINE
8
0
10
12.903175
20
328.281235
11
0.000000
21
328.532998
0
LINE
8
0
10
0.000000
20
328.532998
11
-12.903175
21
328.281235
0
LINE
8
0
10
-12.903175
20
328.281235
11
-25.708699
21
327.531194
0
LINE
8
0
10
-25.708699
20
327.531194
11
-38.405335
21
326.290745
0
LINE
8
0
10
-38.405335
20
326.290745
11
-50.981841
21
324.567757
0
LINE
8
0
10
-50.981841
20
324.567757
11
-63.426979
21
322.370100
0
LINE
8
0
10
-63.426979
20
322.370100
11
-75.729509
21
319.705643
0
LINE
8
0
10
-75.729509
20
319.705643
11
-87.878193
21
316.582258
0
LINE
8
0
10
-87.878193
20
316.582258
11
-99.861790
21
313.007814
0
LINE
8
0
10
-99.861790
20
313.007814
11
-111.669062
21
308.990180
0
LINE
8
0
10
-111.669062
20
308.990180
11
-123.288768
21
304.537226
0
LINE
8
0
10
-123.288768
20
304.537226
11
-134.709671
21
299.656823
0
LINE
8
0
10
-134.709671
20
299.656823
11
-145.920530
21
294.356840
0
LINE
8
0
10
-145.920530
20
294.356840
11
-156.910106
21
288.645147
0
LINE
8
0
10
-156.910106
20
288.645147
11
-167.667160
21
282.529614
0
LINE
8
0
10
-167.667160
20
282.529614
11
-178.180453
21
276.018110
0
LINE
8
0
10
-178.180453
20
276.018110
11
-188.438745
21
269.118507
0
LINE
8
0
10
-188.438745
20
269.118507
11
-198.430796
21
261.838672
0
LINE
8
0
10
-198.430796
20
261.838672
11
-208.145368
21
254.186477
0
LINE
8
0
10
-208.145368
20
254.186477
11
-217.571221
21
246.169791
0
LINE
8
0
10
-217.571221
20
246.169791
11
-226.697116
21
237.796485
0
LINE
8
0
10
-226.697116
20
237.796485
11
-235.511813
21
229.074427
0
LINE
8
0
10
-235.511813
20
229.074427
11
-244.004074
21
220.011488
0
LINE
8
0
10
-244.004074
20
220.011488
11
-252.162658
21
210.615538
0
LINE
8
0
10
-252.162658
20
210.615538
11
-259.976327
21
200.894446
0
LINE
8
0
10
-259.976327
20
200.894446
11
-267.433841
21
190.856082
0
LINE
8
0
10
-267.433841
20
190.856082
11
-274.523961
21
180.508317
0
LINE
8
0
10
-274.523961
20
180.508317
11
-281.235447
21
169.859020
0
LINE
8
0
10
-281.235447
20
169.859020
11
-287.557061
21
158.916060
0
LINE
8
0
10
-287.557061
20
158.916060
11
-293.477562
21
147.687309
0
LINE
8
0
10
-293.477562
20
147.687309
11
-298.985712
21
136.180635
0
LINE
8
0
10
-298.985712
20
136.180635
11
-304.070271
21
124.403909
0
LINE
8
0
10
-304.070271
20
124.403909
11
-308.720000
21
112.365000
0
LINE
8
0
10
-3.072510
20
295.166000
11
-3.258349
21
297.993188
0
LINE
8
0
10
-3.258349
20
297.993188
11
-3.807809
21
300.735147
0
LINE
8
0
10
-3.807809
20
300.735147
11
-4.702932
21
303.360737
0
LINE
8
0
10
-4.702932
20
303.360737
11
-5.925759
21
305.838822
0
LINE
8
0
10
-5.925759
20
305.838822
11
-7.458331
21
308.138264
0
LINE
8
0
10
-7.458331
20
308.138264
11
-9.282691
21
310.227924
0
LINE
8
0
10
-9.282691
20
310.227924
11
-11.380880
21
312.076666
0
LINE
8
0
10
-11.380880
20
312.076666
11
-13.734939
21
313.653351
0
LINE
8
0
10
-13.734939
20
313.653351
11
-16.276847
21
314.904844
0
LINE
8
0
10
-16.276847
20
314.904844
11
-18.926591
21
315.798767
0
LINE
8
0
10
-18.926591
20
315.798767
11
-21.648225
21
316.335121
0
LINE
8
0
10
-21.648225
20
316.335121
11
-24.405805
21
316.513906
0
LINE
8
0
10
-24.405805
20
316.513906
11
-27.163385
21
316.335121
0
LINE
8
0
10
-27.163385
20
316.335121
11
-29.885019
21
315.798767
0
LINE
8
0
10
-29.885019
20
315.798767
11
-32.534763
21
314.904844
0
LINE
8
0
10
-32.534763
20
314.904844
11
-35.076671
21
313.653351
0
LINE
8
0
10
-35.076671
20
313.653351
11
-37.430730
21
312.076666
0
LINE
8
0
10
-37.430730
20
312.076666
11
-39.528919
21
310.227924
0
LINE
8
0
10
-39.528919
20
310.227924
11
-41.353279
21
308.138264
0
LINE
8
0
10
-41.353279
20
308.138264
11
-42.885851
21
305.838822
0
LINE
8
0
10
-42.885851
20
305.838822
11
-44.108678
21
303.360737
0
LINE
8
0
10
-44.108678
20
303.360737
11
-45.003801
21
300.735147
0
LINE
8
0
10
-45.003801
20
300.735147
11
-45.553261
21
297.993188
0
LINE
8
0
10
-45.553261
20
297.993188
11
-45.739100
21
295.166000
0
LINE
8
0
10
-45.739100
20
295.166000
11
-45.553261
21
292.338812
0
LINE
8
0
10
-45.553261
20
292.338812
11
-45.003801
21
289.596853
0
LINE
8
0
10
-45.003801
20
289.596853
11
-44.108678
21
286.971263
0
LINE
8
0
10
-44.108678
20
286.971263
11
-42.885851
21
284.493178
0
LINE
8
0
10
-42.885851
20
284.493178
11
-41.353279
21
282.193736
0
LINE
8
0
10
-41.353279
20
282.193736
11
-39.528919
21
280.104076
0
LINE
8
0
10
-39.528919
20
280.104076
11
-37.430730
21
278.255334
0
LINE
8
0
10
-37.430730
20
278.255334
11
-35.076671
21
276.678649
0
LINE
8
0
10
-35.076671
20
276.678649
11
-32.534763
21
275.427156
0
LINE
8
0
10
-32.534763
20
275.427156
11
-29.885019
21
274.533233
0
LINE
8
0
10
-29.885019
20
274.533233
11
-27.163385
21
273.996879
0
LINE
8
0
10
-27.163385
20
273.996879
11
-24.405805
21
273.818094
0
LINE
8
0
10
-24.405805
20
273.818094
11
-21.648225
21
273.996879
0
LINE
8
0
10
-21.648225
20
273.996879
11
-18.926591
21
274.533233
0
LINE
8
0
10
-18.926591
20
274.533233
11
-16.276847
21
275.427156
0
LINE
8
0
10
-16.276847
20
275.427156
11
-13.734939
21
276.678649
0
LINE
8
0
10
-13.734939
20
276.678649
11
-11.380880
21
278.255334
0
LINE
8
0
10
-11.380880
20
278.255334
11
-9.282691
21
280.104076
0
LINE
8
0
10
-9.282691
20
280.104076
11
-7.458331
21
282.193736
0
LINE
8
0
10
-7.458331
20
282.193736
11
-5.925759
21
284.493178
0
LINE
8
0
10
-5.925759
20
284.493178
11
-4.702932
21
286.971263
0
LINE
8
0
10
-4.702932
20
286.971263
11
-3.807809
21
289.596853
0
LINE
8
0
10
-3.807809
20
289.596853
11
-3.258349
21
292.338812
0
LINE
8
0
10
-3.258349
20
292.338812
11
-3.072510
21
295.166000
0
LINE
8
0
10
-3.072510
20
295.166000
11
-3.072510
21
295.166000
0
LINE
8
0
10
-117.333000
20
245.333000
11
-138.667000
21
282.284000
0
LINE
8
0
10
-138.667000
20
282.284000
11
-160.000000
21
245.333000
0
LINE
8
0
10
-160.000000
20
245.333000
11
-117.333000
21
245.333000
0
LINE
8
0
10
-117.333000
20
245.333000
11
-117.333000
21
245.333000
0
LINE
8
0
10
-60.885200
20
263.946000
11
-60.885200
21
306.613000
0
LINE
8
0
10
-60.885200
20
306.613000
11
-103.552000
21
306.613000
0
LINE
8
0
10
-103.552000
20
306.613000
11
-103.552000
21
263.946000
0
LINE
8
0
10
-103.552000
20
263.946000
11
-60.885200
21
263.946000
0
LINE
8
0
10
-60.885200
20
263.946000
11
-60.885200
21
263.946000
0
LINE
8
0
10
109.123000
20
253.982000
11
102.118000
21
253.982000
0
LINE
8
0
10
102.118000
20
253.982000
11
103.796876
21
257.197976
0
LINE
8
0
10
103.796876
20
257.197976
11
105.066931
21
260.581943
0
LINE
8
0
10
105.066931
20
260.581943
11
105.916271
21
264.095188
0
LINE
8
0
10
105.916271
20
264.095188
11
106.333000
21
267.699000
0
LINE
8
0
10
106.333000
20
267.699000
11
106.333000
21
273.406000
0
LINE
8
0
10
106.333000
20
273.406000
11
102.703240
21
273.416041
0
LINE
8
0
10
102.703240
20
273.416041
11
99.098603
21
273.071208
0
LINE
8
0
10
99.098603
20
273.071208
11
95.545014
21
272.375271
0
LINE
8
0
10
95.545014
20
272.375271
11
92.068400
21
271.332000
0
LINE
8
0
10
92.068400
20
271.332000
11
92.068400
21
279.588000
0
LINE
8
0
10
92.068400
20
279.588000
11
95.374558
21
278.520340
0
LINE
8
0
10
95.374558
20
278.520340
11
98.749577
21
277.719023
0
LINE
8
0
10
98.749577
20
277.719023
11
102.177409
21
277.187195
0
LINE
8
0
10
102.177409
20
277.187195
11
105.642000
21
276.928000
0
LINE
8
0
10
105.642000
20
276.928000
11
104.328623
21
278.531645
0
LINE
8
0
10
104.328623
20
278.531645
11
103.263238
21
280.275510
0
LINE
8
0
10
103.263238
20
280.275510
11
102.451777
21
282.131697
0
LINE
8
0
10
102.451777
20
282.131697
11
101.900174
21
284.072308
0
LINE
8
0
10
101.900174
20
284.072308
11
101.614362
21
286.069442
0
LINE
8
0
10
101.614362
20
286.069442
11
101.600273
21
288.095201
0
LINE
8
0
10
101.600273
20
288.095201
11
101.863842
21
290.121687
0
LINE
8
0
10
101.863842
20
290.121687
11
102.411000
21
292.121000
0
LINE
8
0
10
102.411000
20
292.121000
11
102.924168
21
293.055310
0
LINE
8
0
10
102.924168
20
293.055310
11
103.559005
21
293.889916
0
LINE
8
0
10
103.559005
20
293.889916
11
104.301225
21
294.615911
0
LINE
8
0
10
104.301225
20
294.615911
11
105.136540
21
295.224388
0
LINE
8
0
10
105.136540
20
295.224388
11
106.050662
21
295.706442
0
LINE
8
0
10
106.050662
20
295.706442
11
107.029305
21
296.053166
0
LINE
8
0
10
107.029305
20
296.053166
11
108.058180
21
296.255654
0
LINE
8
0
10
108.058180
20
296.255654
11
109.123000
21
296.305000
0
LINE
8
0
10
109.123000
20
296.305000
11
110.187680
21
296.255523
0
LINE
8
0
10
110.187680
20
296.255523
11
111.216408
21
296.052946
0
LINE
8
0
10
111.216408
20
296.052946
11
112.194901
21
295.706173
0
LINE
8
0
10
112.194901
20
295.706173
11
113.108879
21
295.224107
0
LINE
8
0
10
113.108879
20
295.224107
11
113.944059
21
294.615653
0
LINE
8
0
10
113.944059
20
294.615653
11
114.686161
21
293.889715
0
LINE
8
0
10
114.686161
20
293.889715
11
115.320902
21
293.055196
0
LINE
8
0
10
115.320902
20
293.055196
11
115.834000
21
292.121000
0
LINE
8
0
10
115.834000
20
292.121000
11
116.381262
21
290.121748
0
LINE
8
0
10
116.381262
20
290.121748
11
116.644944
21
288.095308
0
LINE
8
0
10
116.644944
20
288.095308
11
116.630977
21
286.069578
0
LINE
8
0
10
116.630977
20
286.069578
11
116.345293
21
284.072455
0
LINE
8
0
10
116.345293
20
284.072455
11
115.793822
21
282.131837
0
LINE
8
0
10
115.793822
20
282.131837
11
114.982495
21
280.275624
0
LINE
8
0
10
114.982495
20
280.275624
11
113.917244
21
278.531712
0
LINE
8
0
10
113.917244
20
278.531712
11
112.604000
21
276.928000
0
LINE
8
0
10
112.604000
20
276.928000
11
116.068439
21
277.187230
0
LINE
8
0
10
116.068439
20
277.187230
11
119.496118
21
277.719070
0
LINE
8
0
10
119.496118
20
277.719070
11
122.870988
21
278.520375
0
LINE
8
0
10
122.870988
20
278.520375
11
126.177000
21
279.588000
0
LINE
8
0
10
126.177000
20
279.588000
11
126.177000
21
271.332000
0
LINE
8
0
10
126.177000
20
271.332000
11
122.700289
21
272.375301
0
LINE
8
0
10
122.700289
20
272.375301
11
119.146600
21
273.071247
0
LINE
8
0
10
119.146600
20
273.071247
11
115.541861
21
273.416070
0
LINE
8
0
10
115.541861
20
273.416070
11
111.912000
21
273.406000
0
LINE
8
0
10
111.912000
20
273.406000
11
111.912000
21
267.699000
0
LINE
8
0
10
111.912000
20
267.699000
11
112.328729
21
264.095188
0
LINE
8
0
10
112.328729
20
264.095188
11
113.178069
21
260.581943
0
LINE
8
0
10
113.178069
20
260.581943
11
114.448124
21
257.197976
0
LINE
8
0
10
114.448124
20
257.197976
11
116.127000
21
253.982000
0
LINE
8
0
10
116.127000
20
253.982000
11
109.123000
21
253.982000
0
LINE
8
0
10
109.123000
20
253.982000
11
109.123000
21
253.982000
0
LINE
8
0
10
109.123000
20
279.747000
11
107.508080
21
281.369857
0
LINE
8
0
10
107.508080
20
281.369857
11
106.332398
21
283.298744
0
LINE
8
0
10
106.332398
20
283.298744
11
105.635517
21
285.447509
0
LINE
8
0
10
105.635517
20
285.447509
11
105.457000
21
287.730000
0
LINE
8
0
10
105.457000
20
287.730000
11
105.458705
21
288.510938
0
LINE
8
0
10
105.458705
20
288.510938
11
105.618371
21
289.267178
0
LINE
8
0
10
105.618371
20
289.267178
11
105.928444
21
289.975166
0
LINE
8
0
10
105.928444
20
289.975166
11
106.381365
21
290.611349
0
LINE
8
0
10
106.381365
20
290.611349
11
106.955294
21
291.140947
0
LINE
8
0
10
106.955294
20
291.140947
11
107.618484
21
291.537900
0
LINE
8
0
10
107.618484
20
291.537900
11
108.348523
21
291.791740
0
LINE
8
0
10
108.348523
20
291.791740
11
109.123000
21
291.892000
0
LINE
8
0
10
109.123000
20
291.892000
11
109.897477
21
291.791740
0
LINE
8
0
10
109.897477
20
291.791740
11
110.627516
21
291.537900
0
LINE
8
0
10
110.627516
20
291.537900
11
111.290706
21
291.140947
0
LINE
8
0
10
111.290706
20
291.140947
11
111.864635
21
290.611349
0
LINE
8
0
10
111.864635
20
290.611349
11
112.317556
21
289.975166
0
LINE
8
0
10
112.317556
20
289.975166
11
112.627629
21
289.267178
0
LINE
8
0
10
112.627629
20
289.267178
11
112.787295
21
288.510938
0
LINE
8
0
10
112.787295
20
288.510938
11
112.789000
21
287.730000
0
LINE
8
0
10
112.789000
20
287.730000
11
112.610483
21
285.447509
0
LINE
8
0
10
112.610483
20
285.447509
11
111.913602
21
283.298744
0
LINE
8
0
10
111.913602
20
283.298744
11
110.737920
21
281.369857
0
LINE
8
0
10
110.737920
20
281.369857
11
109.123000
21
279.747000
0
LINE
8
0
10
109.123000
20
279.747000
11
109.123000
21
279.747000
0
LINE
8
0
10
-276.020000
20
151.457000
11
-200.596000
21
226.881000
0
LINE
8
0
10
-268.478000
20
143.914000
11
-193.053000
21
219.339000
0
LINE
8
0
10
-260.935000
20
136.372000
11
-185.511000
21
211.796000
0
LINE
8
0
10
138.553000
20
256.211000
11
139.382027
21
258.001350
0
LINE
8
0
10
139.382027
20
258.001350
11
139.611332
21
257.463364
0
LINE
8
0
10
139.611332
20
257.463364
11
141.542792
21
259.394824
0
LINE
8
0
10
141.542792
20
259.394824
11
141.542792
21
259.394824
0
LINE
8
0
10
141.542792
20
259.394824
11
141.736820
21
259.200796
0
LINE
8
0
10
141.736820
20
259.200796
11
139.805360
21
257.269336
0
LINE
8
0
10
139.805360
20
257.269336
11
140.343346
21
257.040031
0
LINE
8
0
10
140.343346
20
257.040031
11
138.553000
21
256.211000
0
LINE
8
0
10
160.916000
20
272.459000
11
161.745027
21
274.249350
0
LINE
8
0
10
161.745027
20
274.249350
11
161.974332
21
273.711364
0
LINE
8
0
10
161.974332
20
273.711364
11
163.905792
21
275.642824
0
LINE
8
0
10
163.905792
20
275.642824
11
163.905792
21
275.642824
0
LINE
8
0
10
163.905792
20
275.642824
11
164.099820
21
275.448796
0
LINE
8
0
10
164.099820
20
275.448796
11
162.168360
21
273.517336
0
LINE
8
0
10
162.168360
20
273.517336
11
162.706346
21
273.288031
0
LINE
8
0
10
162.706346
20
273.288031
11
160.916000
21
272.459000
0
LINE
8
0
10
183.279000
20
256.211000
11
184.108027
21
258.001350
0
LINE
8
0
10
184.108027
20
258.001350
11
184.337332
21
257.463364
0
LINE
8
0
10
184.337332
20
257.463364
11
186.268792
21
259.394824
0
LINE
8
0
10
186.268792
20
259.394824
11
186.268792
21
259.394824
0
LINE
8
0
10
186.268792
20
259.394824
11
186.462820
21
259.200796
0
LINE
8
0
10
186.462820
20
259.200796
11
184.531360
21
257.269336
0
LINE
8
0
10
184.531360
20
257.269336
11
185.069346
21
257.040031
0
LINE
8
0
10
185.069346
20
257.040031
11
183.279000
21
256.211000
0
LINE
8
0
10
174.737000
20
229.922000
11
175.566027
21
231.712350
0
LINE
8
0
10
175.566027
20
231.712350
11
175.795332
21
231.174364
0
LINE
8
0
10
175.795332
20
231.174364
11
177.726792
21
233.105824
0
LINE
8
0
10
177.726792
20
233.105824
11
177.726792
21
233.105824
0
LINE
8
0
10
177.726792
20
233.105824
11
177.920820
21
232.911796
0
LINE
8
0
10
177.920820
20
232.911796
11
175.989360
21
230.980336
0
LINE
8
0
10
175.989360
20
230.980336
11
176.527346
21
230.751031
0
LINE
8
0
10
176.527346
20
230.751031
11
174.737000
21
229.922000
0
LINE
8
0
10
147.095000
20
229.922000
11
147.924027
21
231.712350
0
LINE
8
0
10
147.924027
20
231.712350
11
148.153332
21
231.174364
0
LINE
8
0
10
148.153332
20
231.174364
11
150.084792
21
233.105824
0
LINE
8
0
10
150.084792
20
233.105824
11
150.084792
21
233.105824
0
LINE
8
0
10
150.084792
20
233.105824
11
150.278820
21
232.911796
0
LINE
8
0
10
150.278820
20
232.911796
11
148.347360
21
230.980336
0
LINE
8
0
10
148.347360
20
230.980336
11
148.885346
21
230.751031
0
LINE
8
0
10
148.885346
20
230.751031
11
147.095000
21
229.922000
0
LINE
8
0
10
0.000000
20
0.000161
11
0.000000
21
328.533000
0
LINE
8
0
10
0.000000
20
0.000161
11
308.720000
21
112.365000
0
LINE
8
0
10
0.000000
20
0.000161
11
-308.720000
21
112.365000
 0 
ENDSEC
 0 
EOF